:SAMPLES-PER-SECOND 30
:FULLY-SPECIFIED
:DEGREES
386
root  -81.254 40.6808 -2.83052 10.6266 85.781 8.69481
RightUpLeg  -7.24563 -2.22066 0.418776
RightLeg  14.3222 0.497635 -0.466685
RightFoot  -9.46579 -0.0270972 -2.24291
RightToes  -6.40286e-010 0 -3.6325e-017
Spine  3.15347 0.261988 2.14245
Spine1  4.84866 0.614962 -1.40606
HEad  -13.9693 5.681 -3.11842
LeftShoulder1  -0.710821 5.39756 -31.3814
LeftArm  5.95036 5.95972 -44.0614
LeftForeArm  18.4488 -23.9615 -4.15067
LeftHand  0.0312262 7.49943 3.67181
RightShoulder  -1.14935 -6.52623 31.4939
RightArm  16.8685 -15.4059 46.5595
RightForeArm  20.8309 10.067 7.41139
RightHand  -0.0979988 4.8525 -1.41053
LeftUpLeg  0.934548 6.07947 1.25622
LeftLeg  8.47093 -0.423954 0.121989
LeftFoot  -10.451 0.0643406 -0.125683
LeftToes  1.32783e-010 1.73515e-011 1.59258e-011
387
root  -80.9747 40.5299 -2.746 2.89873 84.7772 1.14496
RightUpLeg  -7.357 -1.87161 1.22591
RightLeg  15.6919 1.09727 -0.419767
RightFoot  -9.8094 -0.0178797 -3.65425
RightToes  -6.40286e-010 0 -3.6325e-017
Spine  3.52309 0.287289 3.72627
Spine1  5.07001 0.809405 -1.49895
HEad  -14.7336 6.14852 -3.36437
LeftShoulder1  -0.678165 5.30558 -31.4946
LeftArm  6.75424 6.96598 -44.3394
LeftForeArm  19.9594 -23.5923 -4.04338
LeftHand  0.00151369 6.99051 2.61872
RightShoulder  -1.15277 -6.55043 31.3065
RightArm  15.8061 -14.3789 46.641
RightForeArm  20.3259 9.30785 7.37758
RightHand  -0.116896 4.85922 -1.57983
LeftUpLeg  -0.0860718 4.42936 1.41776
LeftLeg  12.2091 2.26417 1.13819
LeftFoot  -12.0517 0.0690864 -0.372269
LeftToes  1.32783e-010 1.73515e-011 1.59258e-011
388
root  -80.7313 40.2927 -2.67826 -4.68875 84.2034 -6.48009
RightUpLeg  -7.9015 -2.64173 1.9933
RightLeg  17.6155 2.20594 0.060864
RightFoot  -11.0783 -0.0650886 -4.05407
RightToes  -6.40286e-010 0 -3.6325e-017
Spine  4.17586 0.354827 5.28619
Spine1  4.64939 0.895638 -0.723588
HEad  -16.3704 5.55899 -3.43864
LeftShoulder1  -0.675071 5.26194 -32.2317
LeftArm  8.02566 7.32519 -44.401
LeftForeArm  20.5118 -22.4225 -4.00462
LeftHand  -0.010147 6.83365 1.97497
RightShoulder  -1.11086 -6.48151 30.7561
RightArm  15.0766 -13.0431 46.6268
RightForeArm  17.4105 9.19448 7.25104
RightHand  -0.216946 6.23021 -2.51424
LeftUpLeg  -2.44456 2.3041 2.06992
LeftLeg  17.9345 4.53324 1.94552
LeftFoot  -13.7016 0.0441611 -1.73205
LeftToes  1.32783e-010 1.73515e-011 1.59258e-011
389
root  -80.501 40.1086 -2.60168 -11.0203 84.066 -12.8582
RightUpLeg  -8.07951 -4.21676 2.4871
RightLeg  18.8976 3.67085 0.948179
RightFoot  -12.2502 -0.115683 -4.14654
RightToes  -6.40286e-010 0 -3.6325e-017
Spine  4.38398 0.0866028 7.36138
Spine1  5.09691 0.871469 -1.10426
HEad  -16.9557 6.36678 -4.08285
LeftShoulder1  -0.735076 5.39908 -32.6513
LeftArm  8.62301 7.62998 -44.5282
LeftForeArm  21.424 -21.7223 -4.18025
LeftHand  -0.00674299 7.14608 1.95053
RightShoulder  -1.00154 -6.22845 30.2041
RightArm  15.0717 -10.4088 47.1179
RightForeArm  14.578 8.86271 7.41042
RightHand  -0.0622484 5.87308 -1.1269
LeftUpLeg  -6.21031 1.26615 2.96712
LeftLeg  26.0352 4.51898 2.70399
LeftFoot  -13.7005 -0.0144058 -5.06834
LeftToes  1.32783e-010 1.73515e-011 1.59258e-011
390
root  -80.2942 39.9273 -2.52567 -13.508 83.4954 -15.1553
RightUpLeg  -8.33564 -4.15849 2.96739
RightLeg  20.6028 3.81187 1.06343
RightFoot  -13.3736 -0.168063 -4.37058
RightToes  -6.40286e-010 0 -3.6325e-017
Spine  6.05998 0.592964 8.65501
Spine1  3.87028 1.56682 -0.782828
HEad  -17.4239 4.7159 -4.3808
LeftShoulder1  -0.617601 5.08626 -32.8293
LeftArm  8.07737 8.12538 -45.1285
LeftForeArm  22.6017 -20.3498 -4.61842
LeftHand  -0.0135079 7.04971 1.60439
RightShoulder  -1.07946 -6.42693 30.3951
RightArm  17.1914 -7.55921 46.614
RightForeArm  11.6259 10.3694 7.65802
RightHand  -0.196983 2.39541 -3.03056
LeftUpLeg  -10.7071 0.958134 3.70342
LeftLeg  35.335 3.5501 3.08051
LeftFoot  -10.9259 0.0915416 -8.3745
LeftToes  1.32783e-010 1.73515e-011 1.59258e-011
391
root  -80.0107 39.7845 -2.43431 -15.4506 83.0778 -16.5079
RightUpLeg  -7.73022 -4.23901 3.28428
RightLeg  21.7665 4.19217 1.23976
RightFoot  -14.4007 -0.221484 -4.65272
RightToes  -6.40286e-010 0 -3.6325e-017
Spine  7.33672 0.505484 10.8234
Spine1  3.53876 2.11673 -2.48972
HEad  -18.0396 4.49095 -3.39426
LeftShoulder1  -0.5381 4.9299 -31.5962
LeftArm  7.34131 9.42012 -46.0937
LeftForeArm  22.8898 -19.9414 -4.78776
LeftHand  -0.015702 7.13222 1.40209
RightShoulder  -0.998183 -6.20955 30.2941
RightArm  17.688 -4.02873 47.5766
RightForeArm  10.3117 11.1238 7.57586
RightHand  -0.12862 3.06854 -1.99613
LeftUpLeg  -14.9205 0.660886 4.18773
LeftLeg  43.6354 2.7068 3.10991
LeftFoot  -5.63624 0.393181 -7.41215
LeftToes  1.32783e-010 1.73515e-011 1.59258e-011
392
root  -79.6327 39.7071 -2.33252 -14.5195 82.7678 -14.932
RightUpLeg  -6.62211 -4.28037 3.22135
RightLeg  22.3086 4.57209 1.23744
RightFoot  -15.3664 -0.267427 -4.65778
RightToes  -6.40286e-010 0 -3.6325e-017
Spine  7.56261 0.495244 11.5804
Spine1  4.36667 2.35783 -2.86691
HEad  -18.485 3.42756 -2.1106
LeftShoulder1  -0.598779 5.06856 -32.1222
LeftArm  7.02949 9.78033 -45.488
LeftForeArm  24.0079 -19.2758 -5.07178
LeftHand  -0.0206103 6.58051 1.33046
RightShoulder  -0.834427 -5.81396 29.5143
RightArm  17.829 0.521462 49.2367
RightForeArm  8.51768 11.4599 7.58664
RightHand  -0.204351 4.63068 -2.66486
LeftUpLeg  -18.0749 0.7202 4.20505
LeftLeg  48.5787 0.206701 0.681088
LeftFoot  -3.26419 0.396206 -5.25787
LeftToes  1.32783e-010 1.73515e-011 1.59258e-011
393
root  -79.1986 39.753 -2.22512 -7.96284 82.4012 -8.20052
RightUpLeg  -5.58377 -4.30728 2.45196
RightLeg  21.98 5.22771 1.23486
RightFoot  -15.8607 -0.285346 -4.51163
RightToes  -6.40286e-010 0 -3.6325e-017
Spine  7.81726 0.872424 11.7804
Spine1  4.23099 2.95138 -3.94307
HEad  -16.4642 0.154335 -0.82555
LeftShoulder1  -0.622342 5.13273 -32.0595
LeftArm  8.3903 10.9185 -44.8928
LeftForeArm  23.0873 -19.521 -5.06359
LeftHand  -0.0189408 7.05393 1.24665
RightShoulder  -0.93331 -6.08271 29.6053
RightArm  19.6425 4.59586 49.9361
RightForeArm  5.38487 13.6358 7.14452
RightHand  -0.240425 4.49784 -3.15894
LeftUpLeg  -20.5 0.895141 3.38724
LeftLeg  49.5389 -2.38281 -2.53956
LeftFoot  -4.36259 0.382754 -5.86244
LeftToes  1.32783e-010 1.73515e-011 1.59258e-011
394
root  -78.6889 39.8078 -2.1269 -3.48309 82.162 -3.68306
RightUpLeg  -4.30963 -4.75901 1.81006
RightLeg  21.1521 6.05412 1.21332
RightFoot  -16.2193 -0.303198 -4.54267
RightToes  -6.40286e-010 0 -3.6325e-017
Spine  7.57197 1.30029 12.036
Spine1  4.2432 3.43564 -4.62728
HEad  -15.888 -0.50294 -1.41055
LeftShoulder1  -0.573482 4.99798 -32.2075
LeftArm  7.3983 11.7994 -44.3349
LeftForeArm  24.3905 -18.4602 -5.55634
LeftHand  -0.0237202 7.19963 0.933481
RightShoulder  -0.863907 -5.93681 28.9166
RightArm  19.5689 7.68969 51.0212
RightForeArm  3.12929 15.9549 6.21272
RightHand  -0.184681 6.18519 -2.17441
LeftUpLeg  -22.3154 1.16367 2.65269
LeftLeg  47.477 -2.99974 -3.10475
LeftFoot  -5.37932 0.362303 -6.31452
LeftToes  1.32783e-010 1.73515e-011 1.59258e-011
395
root  -78.136 39.9315 -2.02375 4.02391 81.9081 4.06956
RightUpLeg  -2.45417 -5.73838 0.424602
RightLeg  19.7291 7.3518 1.40998
RightFoot  -16.354 -0.313158 -4.62734
RightToes  -6.40286e-010 0 -3.6325e-017
Spine  7.40222 1.68562 12.0738
Spine1  4.55881 4.0773 -6.31395
HEad  -15.8176 -1.22257 -1.17811
LeftShoulder1  -0.457277 4.71727 -31.5591
LeftArm  4.33057 12.5234 -44.4587
LeftForeArm  27.0837 -16.8582 -6.1534
LeftHand  -0.0299865 7.33398 0.592278
RightShoulder  -0.898609 -6.03995 28.8453
RightArm  19.9888 10.0311 51.5643
RightForeArm  0.14271 20.0343 5.07232
RightHand  -0.259469 5.88775 -2.99623
LeftUpLeg  -22.8963 1.14691 1.34142
LeftLeg  42.328 -1.80089 -1.4037
LeftFoot  -5.94027 0.293866 -5.47484
LeftToes  1.32783e-010 1.73515e-011 1.59258e-011
396
root  -77.5584 40.0243 -1.90879 9.86452 81.9853 9.89282
RightUpLeg  -0.763813 -6.48469 -0.603365
RightLeg  18.2091 8.02841 1.36059
RightFoot  -16.4288 -0.317869 -4.65427
RightToes  -6.40286e-010 0 -3.6325e-017
Spine  7.27751 1.90937 11.4899
Spine1  4.33679 4.22085 -6.83718
HEad  -16.2425 -1.73168 -2.06176
LeftShoulder1  -0.484468 4.78995 -31.5226
LeftArm  2.33981 13.2673 -43.9574
LeftForeArm  28.5075 -15.4728 -6.67069
LeftHand  -0.0222925 7.12245 0.870126
RightShoulder  -0.822283 -5.86109 28.2748
RightArm  18.2322 12.2426 52.0593
RightForeArm  0.636718 23.1446 4.94684
RightHand  -0.301751 6.79774 -3.21809
LeftUpLeg  -23.1334 0.903021 0.3398
LeftLeg  35.372 0.23998 0.525556
LeftFoot  -6.11293 0.261927 -4.94025
LeftToes  1.32783e-010 1.73515e-011 1.59258e-011
397
root  -76.9447 40.067 -1.81048 13.9863 82.153 13.9958
RightUpLeg  0.928155 -6.78111 -1.25816
RightLeg  16.8387 8.16173 1.09862
RightFoot  -16.6792 -0.324635 -4.54377
RightToes  -6.40286e-010 0 -3.6325e-017
Spine  7.02071 2.08983 10.994
Spine1  4.6796 4.33857 -7.13059
HEad  -16.1621 -2.1598 -1.72463
LeftShoulder1  -0.492917 4.80333 -31.7866
LeftArm  0.20161 13.3611 -43.4026
LeftForeArm  30.5423 -13.8008 -7.22364
LeftHand  -0.06003 7.72749 0.0991269
RightShoulder  -0.784811 -5.77146 27.9903
RightArm  16.5986 14.6267 52.0108
RightForeArm  3.27835 26.3678 5.48487
RightHand  -0.342148 6.78603 -3.60652
LeftUpLeg  -22.8412 0.726164 -0.419122
LeftLeg  27.4515 1.82665 1.37597
LeftFoot  -5.27631 0.273316 -4.55876
LeftToes  1.32783e-010 1.73515e-011 1.59258e-011
